<?xml version="1.0" standalone="no"?>
<!DOCTYPE svg PUBLIC "-//W3C//DTD SVG 20010904//EN"
 "http://www.w3.org/TR/2001/REC-SVG-20010904/DTD/svg10.dtd">
<svg version="1.0" xmlns="http://www.w3.org/2000/svg"
 width="128.000000pt" height="128.000000pt" viewBox="0 0 128.000000 128.000000"
 preserveAspectRatio="xMidYMid meet">

<g transform="translate(0.000000,128.000000) scale(0.100000,-0.100000)"
fill="#000000" stroke="none">
<path d="M0 640 l0 -640 640 0 640 0 0 640 0 640 -640 0 -640 0 0 -640z m186
105 c-11 -8 -15 -15 -9 -15 7 0 19 7 28 17 10 10 19 12 23 6 4 -5 25 -16 47
-25 26 -10 40 -23 41 -34 2 -27 15 -54 26 -54 5 0 6 4 3 10 -9 15 25 60 41 53
8 -3 14 0 14 6 0 6 5 11 11 11 5 0 7 -4 4 -10 -8 -13 18 -13 31 0 7 7 21 7 43
-1 18 -6 28 -14 23 -18 -6 -3 0 -11 14 -18 15 -7 24 -7 24 -1 0 5 18 8 39 7
21 -2 46 3 55 10 8 7 21 9 28 5 7 -5 23 -7 36 -5 13 1 30 -3 38 -10 12 -10 15
-10 12 1 -4 17 21 20 40 6 12 -8 39 -11 83 -7 5 1 7 6 4 11 -3 6 -1 10 5 10 6
0 8 5 5 10 -7 11 6 13 29 4 9 -3 16 -13 16 -22 0 -8 3 -12 7 -9 3 4 15 0 25
-10 11 -9 18 -11 18 -5 0 7 15 12 33 12 25 0 37 -6 46 -22 10 -22 11 -22 6 -2
-5 19 -1 22 38 22 35 1 43 -2 43 -18 0 -10 -4 -16 -8 -14 -13 8 -9 -21 4 -34
9 -9 -6 -12 -69 -12 -46 0 -85 5 -88 10 -5 8 -11 8 -20 0 -21 -18 -80 -9 -79
12 1 10 -4 14 -12 11 -8 -3 -14 -11 -14 -19 0 -22 -156 -18 -171 5 -9 14 -10
14 -5 -3 6 -17 2 -18 -29 -13 -23 4 -33 2 -29 -5 4 -7 -7 -8 -37 -3 -24 4 -90
8 -146 9 -56 0 -105 4 -109 9 -11 11 -26 9 -19 -3 3 -5 2 -10 -3 -10 -6 0 -8
-10 -6 -22 2 -13 1 -17 -2 -10 -9 19 -44 -15 -44 -42 0 -16 -2 -18 -9 -7 -5 8
-7 21 -4 29 5 12 3 12 -15 1 -21 -13 -27 -12 -94 22 -11 5 -18 4 -21 -4 -3 -7
-6 19 -6 56 -1 52 2 66 12 61 8 -5 8 -3 -2 9 -11 14 -11 18 5 24 11 4 25 15
32 25 7 10 19 18 25 18 7 0 3 -7 -7 -15z m564 -41 c0 -2 -9 -4 -21 -4 -11 0
-18 4 -14 10 5 8 35 3 35 -6z m450 -54 c0 -5 -2 -10 -4 -10 -3 0 -8 5 -11 10
-3 6 -1 10 4 10 6 0 11 -4 11 -10z m-967 -127 c-7 -2 -21 -2 -30 0 -10 3 -4 5
12 5 17 0 24 -2 18 -5z"/>
<path d="M416 662 c-12 -11 -5 -17 19 -17 14 0 25 3 25 6 0 9 -37 18 -44 11z"/>
<path d="M930 640 c0 -5 5 -10 11 -10 5 0 7 5 4 10 -3 6 -8 10 -11 10 -2 0 -4
-4 -4 -10z"/>
</g>
</svg>
